<?xml version="1.0" standalone="no"?><!DOCTYPE svg PUBLIC "-//W3C//DTD SVG 1.1//EN" "http://www.w3.org/Graphics/SVG/1.1/DTD/svg11.dtd"><svg t="1778875137154" class="icon" viewBox="0 0 1312 1024" version="1.1" xmlns="http://www.w3.org/2000/svg" p-id="6122" xmlns:xlink="http://www.w3.org/1999/xlink" width="82" height="64"><path d="M733.752294 357.614838c8.062556-14.811213 15.40844-28.189084 20.783477-38.043318 59.304577 83.970025 118.429985 167.641436 177.615116 251.253125 2.03057-0.656949 4.061139-1.254175 6.091709-1.911124-9.077841-29.204369-18.155681-58.408737-27.293244-87.553383-17.319564-55.123992-41.089173-109.113254-50.943408-165.551144-26.75574-153.367727 75.429688-292.461744 224.557108-313.424389 114.727182-16.065389 210.940347 50.405904 225.214057 158.324706 7.166716 54.228153-1.911124 105.350728-46.762824 144.170441-6.211154 5.375037-8.420892 15.348717-12.362585 23.232105-22.873769 45.807261-44.254473 92.390916-69.039366 137.12317-14.034819 25.322397-33.026617 26.457127-58.169847 8.420891 32.489113-41.805845 36.669698-90.718683 34.639129-141.124586-0.179168-4.419475 0-9.555622-2.090293-13.019535-31.473829-51.779525-22.276543-105.589619-8.122278-160.355275-24.366835-16.005666-49.330897-13.736206-74.235235-2.388905-56.199 25.501565-89.404785 83.372798-85.881149 149.12742 2.448628 45.568371 15.109827 88.568668 40.790559 125.895314 33.683566 48.972561 70.472709 95.795107 106.425736 143.214879 38.5211 50.76424 74.474126 102.543764 81.401951 168.417831 8.361169 79.251937-14.154264 143.513492-87.075601 185.199891-69.57687 39.834998-145.006558 61.574037-223.064042 74.951907-189.619366 32.429391-378.880397 25.441843-565.692799-17.020951C197.741645 954.243962 23.470996 817.837464 0 589.935889c33.683566 5.255592 66.531015 8.779227 98.542348 15.766775 31.772442 6.927826 62.708767 17.379287 96.452055 26.994631-31.05577-36.371085-47.658663-75.728301-40.611391-126.134205 42.761407 29.92104 86.776989 47.59894 138.616235 45.926707C248.62533 492.468548 204.908361 433.402862 161.251115 374.337176c1.433343-2.03057 2.806964-4.061139 4.240307-6.091709 57.393452 35.475245 118.370263 50.585072 191.53049 35.3558-29.980763-50.883685-58.587905-99.49791-88.508945-150.441317 75.369965 26.277959 149.187142 52.018415 222.944597 77.699148 1.313898-1.970847 2.627796-4.001417 3.881971-5.972264-9.675067-17.6779-19.350134-35.3558-30.936325-56.557335 102.484042-0.119445 189.858257 31.832164 269.349084 89.285339z" p-id="6123"></path></svg>